<?xml version="1.0" encoding="utf-8"?>
<!-- Generator: Adobe Illustrator 21.0.0, SVG Export Plug-In . SVG Version: 6.00 Build 0)  -->
<svg version="1.1" id="Calque_1" xmlns="http://www.w3.org/2000/svg" xmlns:xlink="http://www.w3.org/1999/xlink" x="0px" y="0px"
	 viewBox="0 0 171 75.8" style="enable-background:new 0 0 171 75.8;" xml:space="preserve">
<style type="text/css">
	.st0{fill:#D93F45;}
	.st1{fill:#000101;}
	.st2{enable-background:new    ;}
	.st3{fill:#272525;}
</style>
<title>logo-uc</title>
<path class="st0" d="M30,42.4l0.2-0.4c0.1-0.2,0.2-0.3,0.3-0.5l0.4-0.9l0.4-1l0.3-0.8c0.1-0.2,0.2-0.5,0.2-0.7
	c0.1-0.2,0.2-0.5,0.2-0.8h-3.3c-0.3,0.9-0.7,1.7-1.1,2.5l-2.3-3.2c0.3-0.3,0.5-0.5,0.7-0.7c0.2-0.2,0.4-0.5,0.8-0.8
	c0.6-0.6,1.1-1.3,1.4-2.1c0.3-0.6,0.4-1.3,0.4-2c0-1.2-0.4-2.3-1.3-3.1c-1-0.8-2.2-1.3-3.5-1.2c-0.6,0-1.3,0.1-1.9,0.4
	c-0.6,0.2-1.1,0.5-1.5,0.9c-0.4,0.4-0.8,0.9-1,1.4c-0.3,0.5-0.4,1.1-0.4,1.7c0.1,1.8,0.8,3.6,2,5c-0.7,0.6-1.4,1.1-2,1.8
	c-0.5,0.5-0.9,1-1.3,1.6c-0.3,0.5-0.6,1-0.7,1.6c-0.1,0.5-0.2,1.1-0.2,1.6c0,0.7,0.1,1.5,0.4,2.2c0.3,0.6,0.7,1.2,1.1,1.7
	c0.5,0.5,1.1,0.9,1.7,1.2c0.7,0.3,1.4,0.4,2.1,0.4c2-0.1,3.9-1,5.2-2.6l1.6,2.3h4.2l-3.6-5.1L30,42.4z M22.8,30.1
	c0.3-0.3,0.7-0.4,1.1-0.4c0.4,0,0.8,0.1,1.1,0.4c0.3,0.3,0.4,0.6,0.4,1c0,0.8-0.3,1.5-0.9,2l-0.7,0.8l-0.1,0.1
	c-0.4-0.5-0.7-1.1-1-1.7c-0.2-0.4-0.3-0.7-0.3-1.1C22.4,30.7,22.5,30.3,22.8,30.1z M22.6,44.9c-0.6,0-1.2-0.2-1.6-0.7
	c-0.4-0.5-0.7-1.1-0.7-1.7c0-0.6,0.2-1.3,0.6-1.8c0.6-0.8,1.2-1.5,2-2.1l2.8,4.2C24.6,44.2,23.6,44.9,22.6,44.9L22.6,44.9z"/>
<path class="st1" d="M48.7,30.6c1.5-0.1,3,0.7,3.9,1.9l3-3.3c-0.6-0.6-2.4-2.5-6.6-2.5c-6.2,0-9.3,4.4-9.3,11c0,6.3,2.5,10.6,9,10.6
	c3.6,0,5.8-1.4,6.7-2.5l-2.5-3.2c-0.9,1.1-2.3,1.8-3.8,1.8c-3.2,0-4.7-2.6-4.7-7C44.4,32.7,45.8,30.6,48.7,30.6z"/>
<rect x="80.9" y="34.8" class="st0" width="4.6" height="13.2"/>
<path d="M95.1,32.5c0-1,0.8-1.9,2.3-1.9c1.5,0,3,0.7,3.9,2l2.8-3.4c-1.7-1.7-4-2.6-6.4-2.5c-4.3,0-7.4,2.7-7.4,6.2
	c0,6.6,9.7,6.2,9.7,9.5c0,1.1-0.9,2-2.7,2c-2-0.1-3.9-1-5.3-2.5l-2.6,3.8c2,1.8,4.6,2.7,7.3,2.6c5.3,0,7.9-3.1,7.9-6.2
	C104.8,35.4,95.1,35.9,95.1,32.5z"/>
<path class="st1" d="M131,33.6c0,2.2,0,5.1,0.2,8.1h-0.1c-0.9-2.2-1.9-4.4-3-6.5l-4.2-8.3h-5.5v21h4.4v-8c0-2.5-0.1-4.9-0.3-7.3h0.1
	c0.8,2.2,1.7,4.3,2.8,6.4L130,48h5.4V27H131V33.6z"/>
<polygon points="145.9,39.2 152.6,39.2 152.6,35.4 145.9,35.4 145.9,30.8 153.7,30.8 153.7,27 141.3,27 141.3,48 154.1,48 
	154.1,44.2 145.9,44.2 "/>
<path d="M70.9,31v9.4c0,2.9-1.2,4.1-3.4,4.1c-2.7,0-3.8-1.7-3.8-4.7V27h-4.6v13.7c0,4.3,2.3,7.6,7.7,7.6c4.7,0,8.6-2.2,8.6-8.6v-8.1
	h9.9V27H70.9V31z"/>
<rect x="108.4" y="27" width="4.6" height="20.8"/>
<path d="M129.2,0.4v17.2h7.7v3.8h-12.3v-21H129.2z"/>
<path d="M30.5,17.8c-2-0.1-3.9-1-5.3-2.5L22.6,19c2,1.8,4.6,2.7,7.3,2.6c5.3,0,8-3.1,8-6.2c0-6.7-9.7-6.2-9.7-9.6
	c0-1,0.8-1.8,2.3-1.8c1.5,0,3,0.7,3.9,1.9l2.8-3.4c-1.7-1.7-4-2.7-6.4-2.6c-4.4,0-7.4,2.7-7.4,6.2c0,6.6,9.7,6.2,9.7,9.5
	C33.2,16.8,32.3,17.8,30.5,17.8z"/>
<polygon class="st1" points="48.8,21.3 48.8,4.1 54,4.1 54,0.3 39,0.3 39,4.1 44.2,4.1 44.2,21.3 "/>
<polygon points="61.6,12.5 68.4,12.5 68.4,8.8 61.6,8.8 61.6,4.1 69.5,4.1 69.5,0.3 57,0.3 57,21.3 69.8,21.3 69.8,17.6 61.6,17.6 
	"/>
<path d="M87.1,7c0,2.2,0,5.1,0.2,8.1h-0.1c-0.9-2.2-1.9-4.4-3-6.4L80,0.3h-5.5v21h4.4v-7.9c0-2.5-0.1-4.9-0.3-7.4h0.1
	c0.8,2.2,1.7,4.3,2.8,6.4l4.6,8.9h5.4v-21h-4.4V7z"/>
<path d="M109.5,15.4c0-6.7-9.7-6.2-9.7-9.6c0-1,0.8-1.9,2.3-1.9c1.5,0,3,0.7,3.9,2l2.8-3.4c-1.7-1.7-4-2.6-6.4-2.5
	c-4.3,0-7.4,2.7-7.4,6.2c0,6.6,9.7,6.2,9.7,9.5c0,1.1-0.9,2-2.7,2c-2-0.1-3.9-1-5.3-2.5L94.2,19c2,1.8,4.6,2.7,7.3,2.6
	C106.8,21.6,109.5,18.6,109.5,15.4z"/>
<polygon points="145,12.5 151.8,12.5 151.8,8.8 145,8.8 145,4.1 152.9,4.1 152.9,0.3 140.5,0.3 140.5,21.3 153.3,21.3 153.3,17.6 
	145,17.6 "/>
<path d="M161.3,5.9c0-1,0.8-1.9,2.3-1.9c1.5,0,3,0.7,3.9,1.9l2.9-3.4c-1.7-1.7-4-2.7-6.4-2.5c-4.4,0-7.4,2.7-7.4,6.2
	c0,6.6,9.7,6.2,9.7,9.5c0,1.1-0.9,2-2.7,2c-2-0.1-3.9-1-5.3-2.5l-2.6,3.8c2,1.8,4.6,2.7,7.3,2.6c5.3,0,7.9-3.1,7.9-6.2
	C171,8.7,161.3,9.2,161.3,5.9z"/>
<rect x="2" y="0.1" width="16.2" height="3.8"/>
<path class="st0" d="M15,7.9h-1.3v5.8c0,2.9-1.2,4.1-3.4,4.1c-2.7,0-3.8-1.6-3.8-4.6V7.9H0v3.8h2V14c0,4.3,2.3,7.6,7.7,7.6
	c4.7,0,8.6-2.2,8.6-8.6v-1.4h1.9V7.9H15z"/>
<rect x="113.7" y="0.3" class="st1" width="4.6" height="20.8"/>
<rect x="11.5" y="52.3" class="st0" width="147.9" height="1"/>
<g class="st2">
	<path class="st3" d="M25.8,64.3c-0.5,0-0.8,0-1.1-0.2s-0.5-0.2-0.6-0.4c0-0.1-0.1-0.2-0.1-0.3s0-0.3,0-0.4c0.1,0.1,0.3,0.2,0.4,0.2
		s0.3,0.1,0.4,0.1c0.2,0,0.3,0,0.5,0c0.3,0,0.5,0,0.8-0.1s0.5-0.1,0.8-0.2c0.1-0.5,0.2-1,0.3-1.5s0.2-0.8,0.4-1.1
		c0.1-0.3,0.3-0.6,0.5-0.8s0.3-0.4,0.5-0.6s0.4-0.3,0.6-0.4s0.5-0.1,0.8-0.1c0.2,0,0.4,0,0.5,0.1s0.2,0.2,0.3,0.3s0.1,0.3,0.1,0.4
		s0,0.3,0,0.4c0,0.3-0.1,0.6-0.2,1s-0.4,0.7-0.6,1.1s-0.6,0.7-1,1s-0.8,0.6-1.2,0.8c-0.2,0.6-0.3,1.2-0.5,1.8s-0.3,1.1-0.4,1.5
		c-0.1,0.4-0.3,0.8-0.5,1.2s-0.4,0.9-0.7,1.3c0.2,0.1,0.3,0.2,0.5,0.3s0.4,0.2,0.5,0.3s0.4,0.2,0.6,0.2s0.4,0.1,0.6,0.1
		c0.2,0,0.4,0,0.6-0.1c0.2,0,0.4-0.1,0.6-0.2s0.4-0.3,0.6-0.4C30,69.8,30,70,30,70.2s-0.1,0.4-0.2,0.7s-0.3,0.4-0.5,0.6
		s-0.5,0.2-0.8,0.2c-0.3,0-0.7,0-1-0.1s-0.6-0.2-0.8-0.3s-0.5-0.3-0.7-0.4s-0.4-0.3-0.6-0.4c-0.3,0.3-0.6,0.5-0.9,0.6
		s-0.7,0.2-1.1,0.2c-0.3,0-0.6-0.1-0.8-0.3s-0.3-0.4-0.3-0.7c0-0.1,0-0.2,0.1-0.4s0.2-0.3,0.3-0.4s0.4-0.3,0.6-0.3
		c0.3-0.1,0.6-0.1,1-0.1c0.2,0,0.3,0,0.4,0s0.3,0.1,0.4,0.1c0.1-0.2,0.2-0.4,0.3-0.6s0.2-0.5,0.3-0.8c0.2-0.6,0.4-1.2,0.5-1.7
		s0.3-1.1,0.4-1.7c-0.1,0-0.3,0-0.4,0.1S26,64.3,25.8,64.3z M23.6,70.5c0.1,0,0.3-0.1,0.4-0.1s0.3-0.2,0.5-0.4
		c-0.1,0-0.2-0.1-0.3-0.1c-0.3,0-0.6,0-0.7,0.1s-0.2,0.2-0.2,0.3c0,0.1,0,0.1,0.1,0.1S23.5,70.5,23.6,70.5z M28.7,60.9
		c0,0.1-0.1,0.3-0.2,0.6s-0.2,0.6-0.2,0.9c0.5-0.3,0.9-0.7,1.2-1.1s0.4-0.8,0.4-1.2c0-0.2-0.1-0.4-0.2-0.4c-0.1,0-0.3,0.1-0.5,0.3
		S28.9,60.5,28.7,60.9z"/>
	<path class="st3" d="M37.5,66.2c-0.1,0.2-0.3,0.4-0.5,0.7s-0.4,0.5-0.6,0.8s-0.4,0.5-0.6,0.7s-0.4,0.4-0.5,0.5
		C35.1,68.9,35,69,34.9,69s-0.2,0.1-0.4,0.1s-0.2,0-0.3,0S34,69,33.9,69c-0.1-0.1-0.2-0.2-0.2-0.3c0-0.1-0.1-0.2-0.1-0.4
		s-0.1-0.4,0-0.6c-0.2,0.4-0.5,0.6-0.7,0.8s-0.5,0.3-0.8,0.4c-0.3,0.1-0.5,0.2-0.8,0.2c-0.1,0-0.3,0-0.4-0.1s-0.3-0.2-0.4-0.4
		c-0.1-0.2-0.2-0.4-0.2-0.7s0-0.6,0.1-1.1c0.1-0.6,0.3-1.1,0.6-1.5s0.6-0.8,0.9-1.2s0.7-0.6,1-0.7s0.6-0.2,0.8-0.2
		c0.2,0,0.4,0.1,0.6,0.2c0.1,0.1,0.2,0.2,0.3,0.4s0,0.4-0.2,0.7c0.1,0,0.2,0,0.3-0.1s0.2,0,0.2,0c0.1,0,0.1,0,0.1,0c0,0,0,0.1,0,0.1
		s0,0.2,0,0.3s-0.1,0.4-0.1,0.6s-0.1,0.6-0.2,1c0,0.1,0,0.2,0,0.2s0,0.1,0,0.2s0,0.1,0,0.2s0,0.2-0.1,0.3c0,0.1,0,0.2,0,0.3
		s0,0.2,0,0.3s0.1,0.1,0.1,0.2s0.1,0.1,0.3,0.1c0.1,0,0.2-0.1,0.4-0.2s0.3-0.3,0.5-0.4s0.3-0.4,0.5-0.6s0.3-0.4,0.5-0.6
		s0.3-0.4,0.4-0.5s0.2-0.3,0.3-0.3c0.1-0.1,0.1-0.1,0.2-0.1s0.1,0,0.2,0.1s0,0.1,0,0.2S37.6,66.1,37.5,66.2z M33.5,66.8
		c0-0.2,0.1-0.4,0.2-0.6s0.1-0.5,0.2-0.7s0.1-0.4,0.1-0.6s0-0.2,0-0.2c0,0-0.1,0-0.2,0c0,0-0.1,0-0.2,0s-0.1,0-0.2,0
		c0.1-0.1,0.1-0.3,0.1-0.4s0-0.2,0-0.2c0-0.1,0-0.1-0.1-0.2c-0.1-0.1-0.3,0-0.5,0.2s-0.5,0.6-0.9,1.2c-0.1,0.2-0.2,0.5-0.3,0.8
		s-0.1,0.5-0.2,0.8s0,0.4,0,0.6s0.1,0.3,0.1,0.3c0.1,0.1,0.2,0.1,0.3,0.1s0.3,0,0.4-0.1s0.3-0.2,0.4-0.3s0.3-0.2,0.4-0.3
		s0.2-0.2,0.3-0.3S33.5,66.8,33.5,66.8z"/>
	<path class="st3" d="M43.8,68.2c-0.1,0.1-0.2,0.3-0.3,0.4s-0.2,0.3-0.4,0.4s-0.3,0.2-0.4,0.3s-0.3,0.1-0.5,0.1
		c-0.4,0-0.8-0.1-1-0.3s-0.4-0.4-0.5-0.6s-0.2-0.5-0.2-0.7c0-0.3,0-0.5,0-0.6c0-0.4,0.1-0.8,0.2-1.3s0.4-0.8,0.7-1.2
		s0.6-0.6,0.9-0.9s0.7-0.3,1.1-0.3c0.2,0,0.4,0,0.6,0.1s0.3,0.2,0.4,0.3s0.2,0.3,0.2,0.4s0.1,0.3,0.1,0.4c0-0.1,0-0.2,0.1-0.3
		c0-0.1,0-0.2,0.1-0.3s0-0.2,0.1-0.3c0.1,0,0.1-0.1,0.2-0.1s0.1,0,0.2-0.1c0.1,0,0.2,0,0.2,0c0.1,0,0.2,0,0.2,0
		c0.1,0,0.2,0.1,0.3,0.2c-0.3,0.8-0.4,1.5-0.5,1.9c-0.1,0.2-0.1,0.4-0.2,0.6c0,0.1-0.1,0.3-0.2,0.6s-0.1,0.6-0.2,0.9
		s-0.2,0.7-0.3,1.1s-0.2,0.8-0.3,1.2c0.2-0.2,0.4-0.4,0.6-0.6s0.5-0.5,0.7-0.7s0.5-0.5,0.7-0.8s0.4-0.5,0.6-0.8
		c0.1-0.1,0.2-0.2,0.3-0.3s0.1,0,0.2,0s0,0.1,0,0.2s-0.1,0.2-0.1,0.3c-0.1,0.2-0.3,0.4-0.5,0.6s-0.4,0.4-0.5,0.7s-0.4,0.4-0.6,0.7
		s-0.4,0.4-0.5,0.6c-0.2,0.2-0.4,0.4-0.6,0.6S44.2,71,44,71.3c0,0.2-0.1,0.3-0.1,0.5s0,0.3-0.1,0.4c0,0.3-0.1,0.6-0.1,0.8
		s0,0.4,0,0.6s0,0.3,0,0.5s0,0.3,0,0.4c0,0.3,0,0.6,0,0.7s-0.1,0.2-0.3,0.2c-0.1,0-0.2,0-0.4-0.1s-0.3-0.2-0.4-0.3s-0.3-0.3-0.3-0.5
		s-0.1-0.4-0.1-0.7c0-0.3,0.1-0.7,0.2-1s0.3-0.7,0.5-1c0.1-0.2,0.1-0.5,0.2-0.8s0.2-0.6,0.2-0.9s0.2-0.6,0.2-0.9
		S43.8,68.5,43.8,68.2z M41.6,67.5c0,0.3,0,0.5,0.1,0.6s0.2,0.3,0.2,0.3s0.2,0.1,0.3,0.1s0.2,0,0.2,0c0.2,0,0.4-0.1,0.6-0.2
		s0.3-0.4,0.5-0.6s0.3-0.5,0.4-0.8s0.2-0.5,0.3-0.8c0-0.1,0.1-0.3,0.1-0.4s0-0.2,0.1-0.3c-0.2,0-0.3,0-0.4-0.1s-0.1-0.3-0.1-0.5
		c0-0.1,0-0.2,0-0.3s0-0.2-0.1-0.3s-0.1-0.2-0.2-0.2s-0.2-0.1-0.3-0.1c-0.2,0-0.5,0.1-0.7,0.3s-0.4,0.5-0.5,0.8s-0.3,0.7-0.4,1.1
		S41.6,67.1,41.6,67.5z"/>
	<path class="st3" d="M48.7,69.1c-0.3,0-0.6-0.1-0.8-0.2s-0.4-0.2-0.5-0.4s-0.2-0.3-0.3-0.5S47,67.7,47,67.5c0-0.3,0-0.6,0.1-0.9
		s0.1-0.6,0.2-0.8s0.1-0.5,0.2-0.7s0.1-0.3,0.1-0.3c0.1-0.3,0.2-0.5,0.3-0.7s0.3-0.3,0.6-0.4c0.1,0,0.2,0,0.3-0.1c0.1,0,0.2,0,0.3,0
		s0.2,0,0.2,0c-0.2,0.6-0.4,1.2-0.6,1.6s-0.2,0.8-0.3,1c-0.1,0.3-0.1,0.5-0.2,0.7c0,0.4,0,0.7,0.1,0.9s0.4,0.3,0.7,0.3
		c0.2,0,0.5-0.1,0.7-0.3s0.4-0.4,0.6-0.7c0-0.1,0-0.3,0-0.5c0-0.3,0-0.6,0.1-0.9s0.1-0.5,0.2-0.8s0.1-0.5,0.2-0.6s0.1-0.3,0.2-0.5
		c0.1-0.2,0.2-0.4,0.3-0.4s0.2-0.1,0.4-0.1c0.1,0,0.1,0,0.2,0s0.1,0,0.1,0c0.1,0,0.2,0.1,0.2,0.2c0,0.1,0,0.4,0,0.7
		s-0.1,0.6-0.2,0.9c-0.1,0.3-0.1,0.5-0.2,0.6s-0.1,0.3-0.2,0.5s-0.1,0.2-0.2,0.3s-0.1,0.1-0.2,0.2c0,0.3,0,0.5,0.1,0.7
		s0.1,0.3,0.1,0.4s0.1,0.1,0.2,0.2s0.1,0,0.2,0c0.1,0,0.3-0.1,0.5-0.2s0.4-0.3,0.5-0.5s0.4-0.4,0.6-0.6s0.4-0.4,0.5-0.6
		s0.3-0.4,0.4-0.5s0.2-0.2,0.2-0.3c0.1-0.1,0.1-0.1,0.2-0.2s0.1,0,0.1,0s0.1,0.1,0.1,0.2s0,0.1-0.1,0.2c-0.2,0.3-0.4,0.7-0.7,1.1
		s-0.6,0.7-0.9,1.1s-0.6,0.6-0.9,0.8s-0.6,0.3-0.9,0.3c-0.2,0-0.4-0.1-0.6-0.3s-0.3-0.4-0.4-0.7c-0.2,0.3-0.5,0.6-0.7,0.8
		S49,69.1,48.7,69.1z"/>
	<path class="st3" d="M60.6,66.2c-0.1,0.2-0.3,0.4-0.5,0.7s-0.4,0.5-0.6,0.8s-0.4,0.5-0.6,0.7s-0.4,0.4-0.5,0.5
		C58.2,68.9,58.1,69,58,69s-0.2,0.1-0.4,0.1s-0.2,0-0.3,0S57.1,69,57,69c-0.1-0.1-0.2-0.2-0.2-0.3c0-0.1-0.1-0.2-0.1-0.4
		s-0.1-0.4,0-0.6c-0.2,0.4-0.5,0.6-0.7,0.8s-0.5,0.3-0.8,0.4c-0.3,0.1-0.5,0.2-0.8,0.2c-0.1,0-0.3,0-0.4-0.1s-0.3-0.2-0.4-0.4
		c-0.1-0.2-0.2-0.4-0.2-0.7s0-0.6,0.1-1.1c0.1-0.6,0.3-1.1,0.6-1.5s0.6-0.8,0.9-1.2s0.7-0.6,1-0.7s0.6-0.2,0.8-0.2
		c0.2,0,0.4,0.1,0.6,0.2c0.1,0.1,0.2,0.2,0.3,0.4s0,0.4-0.2,0.7c0.1,0,0.2,0,0.3-0.1s0.2,0,0.2,0c0.1,0,0.1,0,0.1,0c0,0,0,0.1,0,0.1
		s0,0.2,0,0.3s-0.1,0.4-0.1,0.6s-0.1,0.6-0.2,1c0,0.1,0,0.2,0,0.2s0,0.1,0,0.2s0,0.1,0,0.2s0,0.2-0.1,0.3c0,0.1,0,0.2,0,0.3
		s0,0.2,0,0.3s0.1,0.1,0.1,0.2s0.1,0.1,0.3,0.1c0.1,0,0.2-0.1,0.4-0.2s0.3-0.3,0.5-0.4s0.3-0.4,0.5-0.6s0.3-0.4,0.5-0.6
		s0.3-0.4,0.4-0.5s0.2-0.3,0.3-0.3c0.1-0.1,0.1-0.1,0.2-0.1s0.1,0,0.2,0.1s0,0.1,0,0.2S60.7,66.1,60.6,66.2z M56.6,66.8
		c0-0.2,0.1-0.4,0.2-0.6s0.1-0.5,0.2-0.7S57,65,57,64.9s0-0.2,0-0.2c0,0-0.1,0-0.2,0c0,0-0.1,0-0.2,0s-0.1,0-0.2,0
		c0.1-0.1,0.1-0.3,0.1-0.4s0-0.2,0-0.2c0-0.1,0-0.1-0.1-0.2c-0.1-0.1-0.3,0-0.5,0.2s-0.5,0.6-0.9,1.2c-0.1,0.2-0.2,0.5-0.3,0.8
		s-0.1,0.5-0.2,0.8s0,0.4,0,0.6s0.1,0.3,0.1,0.3c0.1,0.1,0.2,0.1,0.3,0.1s0.3,0,0.4-0.1s0.3-0.2,0.4-0.3s0.3-0.2,0.4-0.3
		s0.2-0.2,0.3-0.3S56.5,66.8,56.6,66.8z"/>
	<path class="st3" d="M59.4,68.7c0.4-1.7,0.7-3,1-4.1s0.4-1.8,0.6-2.3c0.1-0.6,0.2-1.1,0.3-1.3c0-0.2,0-0.3,0.1-0.5
		c0-0.1,0-0.3,0-0.5s0-0.3,0-0.4c0.1,0,0.2-0.1,0.2-0.1s0.2,0,0.3-0.1c0.1,0,0.2,0,0.3-0.1s0.2,0,0.3,0c0.1,0,0.1,0,0.2,0
		s0.1,0,0.1,0.1c0.1,0,0.1,0.1,0.1,0.3s0,0.3,0,0.4c0,0.2-0.1,0.4-0.1,0.6c-0.1,0.4-0.3,1-0.5,1.7C62,63,61.8,63.9,61.5,65
		s-0.6,2.5-1,4.1c0,0-0.1,0.1-0.2,0.1s-0.1,0-0.2,0c-0.1,0-0.1,0-0.2,0c-0.1,0-0.1,0-0.2-0.1c-0.1,0-0.1-0.1-0.2-0.1
		S59.5,68.8,59.4,68.7z"/>
	<path class="st3" d="M63.8,63.8c0-0.1,0.1-0.1,0.3-0.1s0.3-0.1,0.4-0.1s0.3,0,0.4,0s0.2,0,0.2,0c0,0,0,0.1-0.1,0.3
		s-0.1,0.4-0.2,0.6s-0.2,0.5-0.3,0.8s-0.2,0.5-0.2,0.6s-0.1,0.3-0.2,0.6S64,66.8,64,67s-0.1,0.4-0.1,0.6s0,0.3,0,0.4
		c0,0.1,0.1,0.2,0.2,0.2s0.1,0.1,0.2,0.1c0.2,0,0.4-0.1,0.7-0.3s0.6-0.4,0.8-0.7s0.6-0.6,0.8-0.8s0.4-0.5,0.5-0.7
		c0.1-0.1,0.1-0.2,0.2-0.2s0.1,0,0.2,0s0.1,0.1,0.1,0.2s0,0.2-0.1,0.3c-0.1,0.3-0.4,0.6-0.6,0.9s-0.6,0.7-0.9,1s-0.6,0.6-0.9,0.8
		s-0.6,0.3-0.7,0.4c-0.2,0-0.3,0-0.5-0.1s-0.3-0.1-0.4-0.2s-0.2-0.2-0.3-0.4S63,68.1,63,67.9c0-0.2,0-0.5,0-0.9s0.1-0.8,0.2-1.2
		s0.2-0.8,0.3-1.2S63.7,64,63.8,63.8z M65.7,60.9c0,0.1-0.1,0.2-0.2,0.3s-0.2,0.2-0.3,0.2s-0.2,0.1-0.3,0.1s-0.2,0-0.2-0.1
		c-0.2-0.1-0.3-0.3-0.3-0.5s0-0.3,0.1-0.5s0.2-0.3,0.3-0.4s0.3-0.2,0.4-0.2s0.2,0,0.3,0.1s0.1,0.1,0.2,0.2s0.1,0.2,0.1,0.3
		S65.7,60.8,65.7,60.9z"/>
	<path class="st3" d="M71.6,65.5c0-0.1,0.1-0.1,0.1-0.1s0.1,0,0.1,0s0.1,0.1,0.1,0.1s0,0.2-0.1,0.3c-0.2,0.3-0.4,0.7-0.7,1.1
		s-0.6,0.8-0.9,1.1s-0.6,0.6-1,0.9s-0.6,0.3-0.8,0.3c-0.3,0-0.6-0.1-0.8-0.2s-0.4-0.3-0.5-0.4s-0.2-0.4-0.2-0.6s-0.1-0.4,0-0.6
		c0-0.1,0-0.4,0.1-0.8s0.1-0.8,0.2-1.3s0.2-1,0.3-1.6s0.2-1.1,0.4-1.6c-0.2,0-0.3,0-0.5,0.1s-0.3,0-0.4,0c-0.3,0-0.6,0-0.8-0.1
		s-0.5-0.1-0.6-0.2c-0.1,0-0.1-0.1-0.1-0.2c0-0.1,0-0.1,0.1-0.2c0-0.1,0.1-0.1,0.2-0.2s0.1-0.1,0.2-0.1c0.2,0,0.4,0,0.6,0
		s0.4,0,0.7,0c0.2,0,0.3,0,0.5,0s0.3,0,0.5-0.1c0.1-0.4,0.2-0.8,0.3-1.1s0.2-0.5,0.3-0.7c0,0,0.1-0.1,0.2-0.1s0.2-0.1,0.3-0.1
		s0.2,0,0.3,0s0.2,0,0.2,0.1c0,0.1,0.1,0.3,0.1,0.6s-0.1,0.7-0.2,1.1c0.4,0,0.7,0,1,0.1s0.5,0.1,0.8,0.1s0.4,0.1,0.5,0.2
		s0.2,0.1,0.3,0.1s0.1,0.1,0.1,0.1s0,0.1,0,0.2s-0.1,0.1-0.2,0.2s-0.2,0.1-0.2,0.1c-0.1,0-0.2,0-0.3-0.1s-0.3,0-0.4-0.1
		s-0.3,0-0.6-0.1s-0.5,0-0.8,0c-0.1,0-0.1,0-0.2,0s-0.1,0-0.2,0c0,0.1-0.1,0.3-0.1,0.4s-0.1,0.3-0.1,0.4c-0.1,0.4-0.3,0.8-0.4,1.2
		c-0.1,0.4-0.3,0.8-0.5,1.3s-0.4,1-0.6,1.5c-0.1,0.4,0,0.7,0,0.9s0.2,0.4,0.3,0.4c0.1,0.1,0.3,0.2,0.4,0.2c0.1,0,0.3,0,0.5-0.1
		s0.4-0.3,0.6-0.5s0.4-0.4,0.6-0.6s0.4-0.5,0.6-0.7s0.3-0.4,0.5-0.6S71.5,65.5,71.6,65.5z"/>
	<path class="st3" d="M77,66.1c-0.3,0.4-0.6,0.8-0.9,1.2s-0.7,0.7-1.1,1s-0.8,0.5-1.2,0.7s-0.8,0.3-1.2,0.3c-0.2,0-0.4,0-0.6-0.1
		s-0.4-0.2-0.6-0.4s-0.3-0.5-0.5-0.8c-0.1-0.3-0.1-0.7-0.1-1.2c0-0.4,0.2-0.8,0.3-1.2s0.4-0.8,0.7-1.1s0.6-0.6,1-0.9
		s0.7-0.3,1.1-0.3c0.3,0,0.6,0.1,0.8,0.3s0.2,0.4,0.2,0.6c0,0.3-0.1,0.5-0.2,0.8s-0.3,0.5-0.5,0.6s-0.4,0.4-0.6,0.5
		s-0.4,0.3-0.6,0.4c-0.2,0.1-0.4,0.3-0.6,0.4s-0.3,0.2-0.5,0.3c0,0.2,0,0.4,0.1,0.6s0.2,0.3,0.3,0.4s0.2,0.2,0.4,0.2
		s0.3,0.1,0.4,0.1c0.3,0,0.6-0.1,1-0.3s0.7-0.4,1-0.7s0.6-0.6,0.9-0.9s0.5-0.6,0.7-0.8c0.1-0.1,0.1-0.1,0.2-0.1s0.1,0,0.2,0
		s0.1,0.1,0.1,0.2S77,66,77,66.1z M73.5,64c-0.1,0-0.2,0.1-0.4,0.2s-0.3,0.3-0.4,0.5s-0.3,0.5-0.4,0.8s-0.2,0.6-0.3,1
		c0.1-0.1,0.2-0.2,0.4-0.3s0.3-0.2,0.4-0.3c0.4-0.3,0.7-0.6,0.8-0.8s0.2-0.4,0.3-0.6c0-0.2,0-0.3-0.1-0.4S73.6,64,73.5,64z
		 M74.6,60.5c0.1-0.1,0.2-0.1,0.3,0s0.2,0.2,0.2,0.3c0.1,0.2,0.1,0.3,0,0.4s-0.1,0.2-0.2,0.3c-0.1,0-0.2,0.1-0.3,0.2
		S74.2,61.9,74,62s-0.4,0.2-0.5,0.2s-0.3,0.1-0.4,0.1c-0.1,0-0.2,0-0.2,0s-0.1-0.1-0.1-0.1s-0.1-0.1-0.1-0.2s0-0.1,0-0.2
		c0.7-0.5,1.2-0.8,1.5-1.1C74.3,60.7,74.5,60.6,74.6,60.5z"/>
	<path class="st3" d="M86.9,66.2c-0.1,0.2-0.3,0.4-0.5,0.7s-0.4,0.5-0.6,0.8s-0.4,0.5-0.6,0.7s-0.4,0.4-0.5,0.5
		c-0.1,0.1-0.2,0.1-0.3,0.1s-0.2,0.1-0.4,0.1s-0.2,0-0.3,0S83.4,69,83.3,69c-0.1-0.1-0.2-0.2-0.2-0.3c0-0.1-0.1-0.2-0.1-0.4
		s-0.1-0.4,0-0.6c-0.2,0.4-0.5,0.6-0.7,0.8s-0.5,0.3-0.8,0.4c-0.3,0.1-0.5,0.2-0.8,0.2c-0.1,0-0.3,0-0.4-0.1s-0.3-0.2-0.4-0.4
		c-0.1-0.2-0.2-0.4-0.2-0.7s0-0.6,0.1-1.1c0.1-0.6,0.3-1.1,0.6-1.5s0.6-0.8,0.9-1.2s0.7-0.6,1-0.7s0.6-0.2,0.8-0.2
		c0.2,0,0.4,0.1,0.6,0.2c0.1,0.1,0.2,0.2,0.3,0.4s0,0.4-0.2,0.7c0.1,0,0.2,0,0.3-0.1s0.2,0,0.2,0c0.1,0,0.1,0,0.1,0c0,0,0,0.1,0,0.1
		s0,0.2,0,0.3s-0.1,0.4-0.1,0.6s-0.1,0.6-0.2,1c0,0.1,0,0.2,0,0.2s0,0.1,0,0.2s0,0.1,0,0.2s0,0.2-0.1,0.3c0,0.1,0,0.2,0,0.3
		s0,0.2,0,0.3s0.1,0.1,0.1,0.2s0.1,0.1,0.3,0.1c0.1,0,0.2-0.1,0.4-0.2s0.3-0.3,0.5-0.4s0.3-0.4,0.5-0.6s0.3-0.4,0.5-0.6
		s0.3-0.4,0.4-0.5s0.2-0.3,0.3-0.3c0.1-0.1,0.1-0.1,0.2-0.1s0.1,0,0.2,0.1s0,0.1,0,0.2S87,66.1,86.9,66.2z M82.9,66.8
		c0-0.2,0.1-0.4,0.2-0.6s0.1-0.5,0.2-0.7s0.1-0.4,0.1-0.6s0-0.2,0-0.2c0,0-0.1,0-0.2,0c0,0-0.1,0-0.2,0s-0.1,0-0.2,0
		c0.1-0.1,0.1-0.3,0.1-0.4s0-0.2,0-0.2c0-0.1,0-0.1-0.1-0.2c-0.1-0.1-0.3,0-0.5,0.2s-0.5,0.6-0.9,1.2c-0.1,0.2-0.2,0.5-0.3,0.8
		S81,66.7,81,67s0,0.4,0,0.6s0.1,0.3,0.1,0.3c0.1,0.1,0.2,0.1,0.3,0.1s0.3,0,0.4-0.1s0.3-0.2,0.4-0.3s0.3-0.2,0.4-0.3
		s0.2-0.2,0.3-0.3S82.9,66.8,82.9,66.8z"/>
	<path class="st3" d="M87.7,69.1c-0.3,0-0.6-0.1-0.8-0.2s-0.4-0.2-0.5-0.4s-0.2-0.3-0.3-0.5S86,67.7,86,67.5c0-0.3,0-0.6,0.1-0.9
		s0.1-0.6,0.2-0.8s0.1-0.5,0.2-0.7s0.1-0.3,0.1-0.3c0.1-0.3,0.2-0.5,0.3-0.7s0.3-0.3,0.6-0.4c0.1,0,0.2,0,0.3-0.1c0.1,0,0.2,0,0.3,0
		s0.2,0,0.2,0c-0.2,0.6-0.4,1.2-0.6,1.6s-0.2,0.8-0.3,1c-0.1,0.3-0.1,0.5-0.2,0.7c0,0.4,0,0.7,0.1,0.9s0.4,0.3,0.7,0.3
		c0.2,0,0.5-0.1,0.7-0.3s0.4-0.4,0.6-0.7c0-0.1,0-0.3,0-0.5c0-0.3,0-0.6,0.1-0.9s0.1-0.5,0.2-0.8s0.1-0.5,0.2-0.6s0.1-0.3,0.2-0.5
		c0.1-0.2,0.2-0.4,0.3-0.4s0.2-0.1,0.4-0.1c0.1,0,0.1,0,0.2,0s0.1,0,0.1,0c0.1,0,0.2,0.1,0.2,0.2c0,0.1,0,0.4,0,0.7
		s-0.1,0.6-0.2,0.9c-0.1,0.3-0.1,0.5-0.2,0.6s-0.1,0.3-0.2,0.5s-0.1,0.2-0.2,0.3s-0.1,0.1-0.2,0.2c0,0.3,0,0.5,0.1,0.7
		s0.1,0.3,0.1,0.4s0.1,0.1,0.2,0.2s0.1,0,0.2,0c0.1,0,0.3-0.1,0.5-0.2s0.4-0.3,0.5-0.5s0.4-0.4,0.6-0.6s0.4-0.4,0.5-0.6
		s0.3-0.4,0.4-0.5s0.2-0.2,0.2-0.3c0.1-0.1,0.1-0.1,0.2-0.2s0.1,0,0.1,0s0.1,0.1,0.1,0.2s0,0.1-0.1,0.2c-0.2,0.3-0.4,0.7-0.7,1.1
		s-0.6,0.7-0.9,1.1s-0.6,0.6-0.9,0.8s-0.6,0.3-0.9,0.3c-0.2,0-0.4-0.1-0.6-0.3s-0.3-0.4-0.4-0.7c-0.2,0.3-0.5,0.6-0.7,0.8
		S88,69.1,87.7,69.1z"/>
	<path class="st3" d="M95,75.1c-0.2,0-0.5-0.1-0.6-0.2c-0.2-0.1-0.3-0.3-0.4-0.5c-0.1-0.2-0.2-0.4-0.3-0.7s-0.1-0.5-0.1-0.7
		c0-0.2,0.1-0.4,0.2-0.7c0.1-0.3,0.3-0.6,0.6-1c0.2-0.3,0.5-0.7,0.9-1c0.3-0.4,0.7-0.7,1.1-0.9c0.1-0.3,0.1-0.6,0.2-0.9
		c0.1-0.3,0.1-0.6,0.2-0.9s0.1-0.5,0.2-0.8s0.1-0.5,0.2-0.7c0.1-0.2,0.1-0.5,0.2-0.8c0.1-0.2,0.1-0.5,0.2-0.8s0.2-0.6,0.3-0.9
		c0.1,0,0.2-0.1,0.3-0.1s0.2,0,0.2,0c0.1,0,0.1,0,0.2,0s0.1,0,0.2,0.1c0.1,0,0.2,0.1,0.3,0.2c-0.2,0.5-0.3,0.9-0.4,1.3
		s-0.2,0.6-0.3,0.9c-0.1,0.3-0.1,0.5-0.2,0.7c-0.1,0.3-0.2,0.5-0.2,0.9s-0.1,0.7-0.2,1c0.4-0.2,0.8-0.5,1.2-0.8s0.7-0.6,1.1-0.9
		s0.6-0.6,0.8-0.8s0.4-0.4,0.4-0.4c0.1-0.1,0.1-0.1,0.2-0.1s0.1,0,0.2,0.1s0.1,0.1,0.1,0.2s0,0.2-0.1,0.3c-0.1,0.2-0.3,0.4-0.6,0.7
		s-0.5,0.6-0.9,0.9s-0.7,0.6-1.1,0.9s-0.8,0.6-1.1,0.8c-0.1,0-0.2,0.1-0.3,0.2C97.3,70,97.1,70.5,97,71s-0.3,1-0.4,1.4
		c-0.1,0.4-0.3,0.8-0.4,1.2s-0.2,0.6-0.3,0.8c-0.1,0.2-0.3,0.4-0.4,0.5S95.2,75.1,95,75.1z M94.5,73.4c0,0.3,0,0.6,0.1,0.7
		c0.1,0.2,0.2,0.2,0.3,0.2c0.1,0,0.2-0.1,0.2-0.2c0.1-0.2,0.2-0.4,0.2-0.6c0.1-0.2,0.2-0.5,0.2-0.8c0.1-0.3,0.1-0.5,0.2-0.8
		c0.1-0.2,0.1-0.5,0.1-0.6c0-0.2,0.1-0.3,0.1-0.3c0-0.1,0-0.2,0.1-0.2c0-0.1,0-0.2,0.1-0.3c-0.2,0.2-0.4,0.4-0.6,0.7
		c-0.2,0.2-0.4,0.5-0.5,0.7c-0.1,0.2-0.3,0.5-0.3,0.7C94.5,72.9,94.5,73.2,94.5,73.4z M99.7,60.5c0,0.1,0,0.2-0.1,0.3
		s-0.1,0.2-0.2,0.3s-0.2,0.2-0.3,0.2s-0.2,0.1-0.3,0.1c-0.1,0-0.2,0-0.3-0.2s-0.1-0.2-0.1-0.4c0-0.1,0-0.2,0.1-0.4s0.2-0.3,0.3-0.4
		s0.2-0.2,0.3-0.3s0.2-0.1,0.3-0.1c0.2,0,0.2,0.1,0.3,0.2S99.8,60.3,99.7,60.5z"/>
	<path class="st3" d="M101.9,69.1c-0.3,0-0.6-0.1-0.8-0.2s-0.4-0.2-0.5-0.4s-0.2-0.3-0.3-0.5s-0.1-0.4-0.1-0.5c0-0.3,0-0.6,0.1-0.9
		s0.1-0.6,0.2-0.8s0.1-0.5,0.2-0.7s0.1-0.3,0.1-0.3c0.1-0.3,0.2-0.5,0.3-0.7s0.3-0.3,0.6-0.4c0.1,0,0.2,0,0.3-0.1c0.1,0,0.2,0,0.3,0
		s0.2,0,0.2,0c-0.2,0.6-0.4,1.2-0.6,1.6s-0.2,0.8-0.3,1c-0.1,0.3-0.1,0.5-0.2,0.7c0,0.4,0,0.7,0.1,0.9s0.4,0.3,0.7,0.3
		c0.2,0,0.5-0.1,0.7-0.3s0.4-0.4,0.6-0.7c0-0.1,0-0.3,0-0.5c0-0.3,0-0.6,0.1-0.9s0.1-0.5,0.2-0.8s0.1-0.5,0.2-0.6s0.1-0.3,0.2-0.5
		c0.1-0.2,0.2-0.4,0.3-0.4s0.2-0.1,0.4-0.1c0.1,0,0.1,0,0.2,0s0.1,0,0.1,0c0.1,0,0.2,0.1,0.2,0.2c0,0.1,0,0.4,0,0.7
		s-0.1,0.6-0.2,0.9c-0.1,0.3-0.1,0.5-0.2,0.6s-0.1,0.3-0.2,0.5s-0.1,0.2-0.2,0.3s-0.1,0.1-0.2,0.2c0,0.3,0,0.5,0.1,0.7
		s0.1,0.3,0.1,0.4s0.1,0.1,0.2,0.2s0.1,0,0.2,0c0.1,0,0.3-0.1,0.5-0.2s0.4-0.3,0.5-0.5s0.4-0.4,0.6-0.6s0.4-0.4,0.5-0.6
		s0.3-0.4,0.4-0.5s0.2-0.2,0.2-0.3c0.1-0.1,0.1-0.1,0.2-0.2s0.1,0,0.1,0s0.1,0.1,0.1,0.2s0,0.1-0.1,0.2c-0.2,0.3-0.4,0.7-0.7,1.1
		s-0.6,0.7-0.9,1.1s-0.6,0.6-0.9,0.8s-0.6,0.3-0.9,0.3c-0.2,0-0.4-0.1-0.6-0.3s-0.3-0.4-0.4-0.7c-0.2,0.3-0.5,0.6-0.7,0.8
		S102.3,69.1,101.9,69.1z"/>
	<path class="st3" d="M108.7,68.5c0.1,0,0.1,0.1,0.2,0.1s0.2,0,0.3-0.1s0.2-0.1,0.2-0.2s0.1-0.1,0.2-0.2s0-0.2,0-0.4
		s-0.1-0.4-0.2-0.6s-0.2-0.4-0.3-0.6S109,66,109,65.8c-0.1-0.1-0.1-0.3-0.1-0.4c0-0.1-0.1-0.2-0.1-0.3s-0.1-0.2-0.1-0.2
		c0,0.1-0.1,0.2-0.2,0.4s-0.2,0.3-0.4,0.5s-0.3,0.3-0.4,0.5s-0.2,0.3-0.2,0.3c-0.1,0.1-0.1,0.1-0.2,0.1s-0.1,0-0.2,0
		s-0.1-0.1-0.1-0.2s0-0.2,0.1-0.3c0.1-0.1,0.1-0.2,0.2-0.3s0.2-0.3,0.3-0.5s0.2-0.3,0.3-0.5s0.1-0.2,0.2-0.2c0-0.1,0-0.2-0.1-0.3
		s-0.1-0.3,0-0.4c0-0.1,0.1-0.3,0.2-0.4s0.3-0.3,0.5-0.5s0.4-0.2,0.5-0.3s0.3-0.1,0.5,0c0.1,0.1,0.2,0.2,0.3,0.2s0.1,0.2,0.1,0.3
		c0,0,0,0.1-0.1,0.2s-0.1,0.2-0.2,0.3s-0.2,0.2-0.3,0.4c0,0.2,0.1,0.4,0.1,0.6s0.1,0.3,0.1,0.5c0.1,0.2,0.1,0.3,0.2,0.4
		c0.1,0.2,0.2,0.3,0.3,0.5s0.2,0.3,0.2,0.5s0.1,0.3,0.2,0.5s0.1,0.3,0,0.4c0,0.2-0.1,0.3-0.2,0.6s-0.3,0.4-0.5,0.6s-0.4,0.4-0.7,0.5
		s-0.5,0.2-0.8,0.2c-0.2,0-0.4-0.1-0.6-0.2s-0.3-0.3-0.5-0.4s-0.2-0.3-0.3-0.5s-0.1-0.3,0-0.4c0.1-0.1,0.1-0.2,0.2-0.3
		s0.1-0.1,0.2-0.2c0,0,0.1-0.1,0.1-0.1c0,0,0.1-0.1,0.2-0.1s0.2-0.1,0.3-0.1c0.1,0.3,0.2,0.5,0.2,0.7s0.1,0.3,0.2,0.4
		C108.6,68.4,108.7,68.4,108.7,68.5z"/>
	<path class="st3" d="M116.8,65.5c0-0.1,0.1-0.1,0.1-0.1s0.1,0,0.1,0s0.1,0.1,0.1,0.1s0,0.2-0.1,0.3c-0.2,0.3-0.4,0.7-0.7,1.1
		s-0.6,0.8-0.9,1.1s-0.6,0.6-1,0.9s-0.6,0.3-0.8,0.3c-0.3,0-0.6-0.1-0.8-0.2s-0.4-0.3-0.5-0.4s-0.2-0.4-0.2-0.6s-0.1-0.4,0-0.6
		c0-0.1,0-0.4,0.1-0.8s0.1-0.8,0.2-1.3s0.2-1,0.3-1.6s0.2-1.1,0.4-1.6c-0.2,0-0.3,0-0.5,0.1s-0.3,0-0.4,0c-0.3,0-0.6,0-0.8-0.1
		s-0.5-0.1-0.6-0.2c-0.1,0-0.1-0.1-0.1-0.2c0-0.1,0-0.1,0.1-0.2c0-0.1,0.1-0.1,0.2-0.2s0.1-0.1,0.2-0.1c0.2,0,0.4,0,0.6,0
		s0.4,0,0.7,0c0.2,0,0.3,0,0.5,0s0.3,0,0.5-0.1c0.1-0.4,0.2-0.8,0.3-1.1s0.2-0.5,0.3-0.7c0,0,0.1-0.1,0.2-0.1s0.2-0.1,0.3-0.1
		s0.2,0,0.3,0s0.2,0,0.2,0.1c0,0.1,0.1,0.3,0.1,0.6s-0.1,0.7-0.2,1.1c0.4,0,0.7,0,1,0.1s0.5,0.1,0.8,0.1s0.4,0.1,0.5,0.2
		s0.2,0.1,0.3,0.1s0.1,0.1,0.1,0.1s0,0.1,0,0.2s-0.1,0.1-0.2,0.2s-0.2,0.1-0.2,0.1c-0.1,0-0.2,0-0.3-0.1s-0.3,0-0.4-0.1
		s-0.3,0-0.6-0.1s-0.5,0-0.8,0c-0.1,0-0.1,0-0.2,0s-0.1,0-0.2,0c0,0.1-0.1,0.3-0.1,0.4s-0.1,0.3-0.1,0.4c-0.1,0.4-0.3,0.8-0.4,1.2
		c-0.1,0.4-0.3,0.8-0.5,1.3s-0.4,1-0.6,1.5c-0.1,0.4,0,0.7,0,0.9s0.2,0.4,0.3,0.4c0.1,0.1,0.3,0.2,0.4,0.2c0.1,0,0.3,0,0.5-0.1
		s0.4-0.3,0.6-0.5s0.4-0.4,0.6-0.6s0.4-0.5,0.6-0.7s0.3-0.4,0.5-0.6S116.7,65.5,116.8,65.5z"/>
	<path class="st3" d="M122.1,66.1c-0.3,0.4-0.6,0.8-0.9,1.2s-0.7,0.7-1.1,1s-0.8,0.5-1.2,0.7s-0.8,0.3-1.2,0.3c-0.2,0-0.4,0-0.6-0.1
		s-0.4-0.2-0.6-0.4s-0.3-0.5-0.5-0.8c-0.1-0.3-0.1-0.7-0.1-1.2c0-0.4,0.2-0.8,0.3-1.2s0.4-0.8,0.7-1.1s0.6-0.6,1-0.9
		s0.7-0.3,1.1-0.3c0.3,0,0.6,0.1,0.8,0.3s0.2,0.4,0.2,0.6c0,0.3-0.1,0.5-0.2,0.8s-0.3,0.5-0.5,0.6s-0.4,0.4-0.6,0.5
		s-0.4,0.3-0.6,0.4c-0.2,0.1-0.4,0.3-0.6,0.4s-0.3,0.2-0.5,0.3c0,0.2,0,0.4,0.1,0.6s0.2,0.3,0.3,0.4s0.2,0.2,0.4,0.2
		s0.3,0.1,0.4,0.1c0.3,0,0.6-0.1,1-0.3s0.7-0.4,1-0.7s0.6-0.6,0.9-0.9s0.5-0.6,0.7-0.8c0.1-0.1,0.1-0.1,0.2-0.1s0.1,0,0.2,0
		s0.1,0.1,0.1,0.2S122.2,66,122.1,66.1z M118.6,64c-0.1,0-0.2,0.1-0.4,0.2s-0.3,0.3-0.4,0.5s-0.3,0.5-0.4,0.8s-0.2,0.6-0.3,1
		c0.1-0.1,0.2-0.2,0.4-0.3s0.3-0.2,0.4-0.3c0.4-0.3,0.7-0.6,0.8-0.8s0.2-0.4,0.3-0.6c0-0.2,0-0.3-0.1-0.4S118.7,64,118.6,64z"/>
	<path class="st3" d="M124.1,74.8c-0.1,0-0.1-0.1-0.2-0.1c-0.1,0-0.1-0.1-0.2-0.2s-0.1-0.2-0.1-0.3c0.3-1,0.5-1.8,0.6-2.5
		s0.3-1.3,0.5-1.8c0.1-0.6,0.3-1,0.4-1.4c0.1-0.4,0.2-0.7,0.3-1.1c0.1-0.3,0.2-0.7,0.2-1s0.2-0.7,0.2-1c0.1-0.4,0.1-0.6,0.2-0.9
		s0-0.4-0.2-0.6c0.1-0.1,0.2-0.2,0.3-0.2s0.2-0.1,0.3-0.1c0.1,0,0.2,0,0.3,0c0.2,0,0.4,0.1,0.5,0.2s0.1,0.4,0,0.7c0,0,0,0.1,0,0.1
		s0,0.1,0,0.1c0.1-0.1,0.3-0.3,0.4-0.4s0.3-0.3,0.5-0.4s0.3-0.2,0.5-0.3s0.3-0.1,0.5-0.1c0.2,0,0.4,0.1,0.5,0.2s0.2,0.2,0.3,0.4
		s0.1,0.4,0.1,0.6s0,0.4,0,0.6c0,0.2,0,0.5-0.1,0.7s-0.2,0.5-0.3,0.8s-0.3,0.5-0.4,0.8s-0.3,0.5-0.5,0.7c0,0,0.1,0,0.1,0s0,0,0,0
		s0,0,0,0s0,0,0.1,0c0.2,0,0.4-0.1,0.6-0.2s0.4-0.2,0.6-0.4s0.4-0.4,0.6-0.6s0.4-0.4,0.5-0.6s0.3-0.4,0.4-0.5s0.2-0.3,0.2-0.3
		c0.1-0.1,0.1-0.2,0.2-0.2s0.1,0,0.2,0s0.1,0.1,0.1,0.2s0,0.2-0.1,0.3c0,0.1-0.1,0.2-0.2,0.4s-0.3,0.4-0.4,0.6s-0.4,0.5-0.6,0.7
		s-0.5,0.5-0.7,0.7s-0.5,0.4-0.8,0.5s-0.5,0.2-0.8,0.2c-0.1,0-0.2,0-0.3,0s-0.1,0-0.2,0s-0.1,0-0.1-0.1s-0.1,0-0.2-0.1
		c-0.2,0.1-0.3,0.2-0.5,0.3s-0.3,0.1-0.5,0.1c-0.2,0-0.3,0-0.4-0.1s-0.2-0.1-0.3-0.2s-0.1-0.2-0.2-0.3s-0.1-0.2-0.1-0.3
		c0,0,0,0.1,0,0.1s0,0.1,0,0.1c-0.1,0.4-0.2,0.9-0.3,1.5c-0.1,0.5-0.2,1.1-0.4,1.8s-0.3,1.5-0.4,2.4c-0.1,0.2-0.2,0.4-0.3,0.4
		C124.4,74.8,124.3,74.8,124.1,74.8z M126.6,66.3c0,0.2-0.1,0.3-0.1,0.5s-0.1,0.4-0.2,0.7c0.1-0.1,0.2-0.1,0.2-0.1s0.2,0,0.3,0
		c0.1,0,0.2,0.1,0.4,0.2s0.3,0.2,0.6,0.3c0.1-0.2,0.3-0.3,0.4-0.6s0.3-0.4,0.4-0.6s0.2-0.4,0.3-0.7s0.1-0.4,0.1-0.7
		c0-0.3,0-0.5-0.1-0.6s-0.2-0.2-0.4-0.2c-0.3,0-0.6,0.2-0.9,0.5S126.9,65.8,126.6,66.3z"/>
	<path class="st3" d="M130.9,68.9c-0.1,0.1-0.1,0.2-0.2,0.2c-0.1,0-0.1,0-0.2,0c-0.1,0-0.1-0.1-0.1-0.1c0-0.1,0-0.2,0.1-0.3
		c0-0.1,0.1-0.2,0.2-0.4s0.2-0.4,0.3-0.7c0.1-0.3,0.3-0.6,0.4-0.9c0.2-0.3,0.3-0.6,0.4-0.9s0.3-0.5,0.4-0.8s0.2-0.4,0.3-0.5
		c-0.1-0.1-0.2-0.2-0.2-0.2s-0.1-0.1-0.1-0.3c0-0.1,0-0.3,0.1-0.5s0.2-0.4,0.3-0.6s0.3-0.3,0.4-0.5s0.3-0.2,0.4-0.2
		c0.3,0,0.4,0.1,0.5,0.2s0.2,0.3,0.2,0.5c0,0.1,0,0.3,0,0.5s-0.1,0.3-0.2,0.5c0,0,0.1,0,0.1,0.1s0.1,0,0.2,0c0.1,0,0.2,0,0.3,0
		s0.2,0,0.3,0c0.2,0,0.3,0,0.4,0.1s0.2,0.2,0.2,0.3s0.1,0.2,0.1,0.4s0.1,0.3,0.1,0.4c0,0.2,0,0.5-0.2,0.7s-0.3,0.5-0.5,0.8
		c-0.1,0.2-0.3,0.4-0.4,0.6s-0.2,0.4-0.2,0.6c0,0.1,0,0.2,0.1,0.3s0.2,0.1,0.4,0.1c0.2,0,0.3-0.1,0.5-0.2s0.4-0.3,0.6-0.4
		s0.4-0.4,0.6-0.6s0.4-0.4,0.5-0.6s0.3-0.4,0.4-0.6s0.2-0.3,0.3-0.4c0-0.1,0.1-0.1,0.2-0.2s0.1,0,0.2,0s0.1,0.1,0.1,0.2
		s0,0.2-0.1,0.3c-0.1,0.1-0.1,0.2-0.3,0.4s-0.3,0.4-0.5,0.7s-0.4,0.5-0.6,0.8s-0.5,0.5-0.7,0.7s-0.5,0.4-0.8,0.5s-0.5,0.2-0.7,0.2
		c-0.2,0-0.4,0-0.6-0.1s-0.3-0.2-0.4-0.3s-0.2-0.3-0.2-0.4s-0.1-0.3,0-0.4c0-0.1,0-0.2,0.1-0.3s0.1-0.3,0.2-0.4s0.1-0.3,0.2-0.4
		s0.1-0.3,0.2-0.4c0.2-0.3,0.3-0.5,0.4-0.7s0.1-0.3,0.1-0.5c0-0.1,0-0.2-0.1-0.2s-0.1-0.1-0.2-0.1c-0.1,0-0.1,0-0.1,0s0,0-0.1,0
		s-0.1,0-0.1,0s-0.1,0-0.2,0c-0.1,0-0.2,0-0.3-0.1s-0.2-0.1-0.2-0.1c0,0.1-0.1,0.2-0.2,0.4s-0.3,0.5-0.4,0.7s-0.3,0.6-0.5,0.9
		s-0.4,0.6-0.5,0.9s-0.3,0.5-0.4,0.7C131,68.7,130.9,68.8,130.9,68.9z"/>
	<path class="st3" d="M138.2,63.8c0-0.1,0.1-0.1,0.3-0.1s0.3-0.1,0.4-0.1s0.3,0,0.4,0s0.2,0,0.2,0c0,0,0,0.1-0.1,0.3
		s-0.1,0.4-0.2,0.6s-0.2,0.5-0.3,0.8s-0.2,0.5-0.2,0.6s-0.1,0.3-0.2,0.6s-0.1,0.4-0.2,0.6s-0.1,0.4-0.1,0.6s0,0.3,0,0.4
		c0,0.1,0.1,0.2,0.2,0.2s0.1,0.1,0.2,0.1c0.2,0,0.4-0.1,0.7-0.3s0.6-0.4,0.8-0.7s0.6-0.6,0.8-0.8s0.4-0.5,0.5-0.7
		c0.1-0.1,0.1-0.2,0.2-0.2s0.1,0,0.2,0s0.1,0.1,0.1,0.2s0,0.2-0.1,0.3c-0.1,0.3-0.4,0.6-0.6,0.9s-0.6,0.7-0.9,1s-0.6,0.6-0.9,0.8
		s-0.6,0.3-0.7,0.4c-0.2,0-0.3,0-0.5-0.1s-0.3-0.1-0.4-0.2s-0.2-0.2-0.3-0.4s-0.1-0.3-0.1-0.4c0-0.2,0-0.5,0-0.9s0.1-0.8,0.2-1.2
		s0.2-0.8,0.3-1.2S138.1,64,138.2,63.8z M140.1,60.9c0,0.1-0.1,0.2-0.2,0.3s-0.2,0.2-0.3,0.2s-0.2,0.1-0.3,0.1s-0.2,0-0.2-0.1
		c-0.2-0.1-0.3-0.3-0.3-0.5s0-0.3,0.1-0.5s0.2-0.3,0.3-0.4s0.3-0.2,0.4-0.2s0.2,0,0.3,0.1s0.1,0.1,0.2,0.2s0.1,0.2,0.1,0.3
		S140.1,60.8,140.1,60.9z"/>
	<path class="st3" d="M146.9,67.1c-0.4,0.5-0.7,0.9-1,1.1s-0.6,0.5-0.8,0.6s-0.4,0.2-0.6,0.3s-0.3,0.1-0.5,0.1c-0.2,0-0.3,0-0.4-0.1
		s-0.2-0.2-0.3-0.3s-0.1-0.2-0.2-0.4s-0.1-0.2-0.1-0.3c0-0.1-0.1-0.2-0.1-0.3s-0.1-0.3-0.1-0.4c-0.2,0.2-0.4,0.4-0.6,0.6
		c-0.2,0.2-0.4,0.4-0.6,0.6s-0.4,0.5-0.7,0.7c-0.1,0-0.2,0-0.2,0c-0.1,0-0.1,0-0.2-0.1c-0.1,0-0.1-0.1-0.1-0.1c0,0-0.1-0.1-0.1-0.1
		c0,0,0-0.1-0.1-0.1c0,0,0-0.1,0-0.1c0.3-0.3,0.5-0.6,0.8-0.9s0.5-0.6,0.7-0.8c0.2-0.3,0.5-0.5,0.7-0.8c-0.1-0.3-0.2-0.7-0.3-1
		s-0.2-0.5-0.2-0.6c-0.1-0.3-0.2-0.5-0.2-0.7s-0.2-0.3-0.3-0.4c0.1-0.1,0.2-0.2,0.3-0.2s0.2-0.1,0.3-0.1c0.1,0,0.2-0.1,0.3-0.1
		c0.2,0,0.4,0.2,0.6,0.6s0.3,0.9,0.5,1.5c0,0,0,0.1,0,0.1c0.2-0.2,0.4-0.4,0.6-0.6s0.3-0.4,0.5-0.5s0.2-0.3,0.3-0.4s0.1-0.1,0.2-0.2
		c0.2-0.2,0.3-0.3,0.5-0.4s0.3,0,0.4,0.1c0.1,0,0.1,0.1,0.2,0.1c0.1,0.1,0.3,0.1,0.4,0.2c-0.2,0.1-0.3,0.3-0.5,0.5s-0.4,0.4-0.5,0.5
		c-0.2,0.2-0.4,0.4-0.6,0.6c-0.1,0.1-0.3,0.3-0.5,0.5s-0.4,0.4-0.6,0.7c0.1,0.2,0.1,0.4,0.2,0.6s0.1,0.4,0.2,0.5s0.2,0.3,0.2,0.4
		s0.2,0.1,0.3,0.1c0.1,0,0.3,0,0.5-0.1s0.4-0.2,0.6-0.3s0.4-0.3,0.6-0.5s0.4-0.4,0.6-0.6c0.1-0.1,0.1-0.1,0.2-0.1s0.1,0,0.1,0
		s0,0.1,0,0.2S147,67,146.9,67.1z"/>
</g>
</svg>
